<?xml version="1.0" encoding="iso-8859-1"?>
<!-- Uploaded to: SVG Repo, www.svgrepo.com, Generator: SVG Repo Mixer Tools -->
<svg fill="#000000" height="800px" width="800px" version="1.1" id="Layer_1" xmlns="http://www.w3.org/2000/svg" xmlns:xlink="http://www.w3.org/1999/xlink" 
	 viewBox="0 0 502 502" xml:space="preserve">
<g>
	<g>
		<g>
			<path d="M331.194,84.155c5.523,0,10-4.477,10-10V14.999c0-5.522-4.478-10-10-10c-5.522,0-10,4.478-10,10v59.156
				C321.194,79.677,325.672,84.155,331.194,84.155z"/>
			<path d="M492,162.472h-67.488c-5.522,0-10,4.478-10,10c0,5.522,4.478,10,10,10H492c5.522,0,10-4.478,10-10
				C502,166.95,497.522,162.472,492,162.472z"/>
			<path d="M367.021,119.982c5.523,0,10-4.477,10-10V79.988c0-5.522-4.478-10-10-10c-5.522,0-10,4.478-10,10v29.994
				C357.021,115.504,361.499,119.982,367.021,119.982z"/>
			<path d="M396.184,149.145c2.559,0,5.118-0.977,7.072-2.929l22.496-22.496c3.905-3.906,3.905-10.238,0-14.143
				c-3.907-3.904-10.237-3.904-14.143,0l-22.496,22.496c-3.905,3.906-3.905,10.238,0,14.143
				C391.066,148.168,393.624,149.145,396.184,149.145z"/>
			<path d="M366.178,156.653l-54.157-54.157L279.526,70c-2.053-2.053-4.896-3.115-7.79-2.902c-2.896,0.208-5.557,1.665-7.294,3.99
				l-22.497,30.126c-0.002,0.002-0.003,0.005-0.005,0.008l-58.318,78.095l-56.657,75.87l-53.797,72.042
				c-0.083,0.078-0.171,0.147-0.252,0.228L2.929,397.443C1.054,399.319,0,401.862,0,404.515s1.054,5.195,2.929,7.071l82.486,82.486
				c1.875,1.875,4.419,2.929,7.071,2.929c2.652,0,5.196-1.054,7.071-2.929l69.988-69.988c0.079-0.079,0.146-0.164,0.221-0.244
				l27.823-20.62l58.324-43.224c0.003-0.002,0.005-0.004,0.008-0.006l54.983-40.747l54.157-40.137l61.656-45.692
				c2.337-1.731,3.804-4.396,4.019-7.297c0.214-2.9-0.845-5.751-2.902-7.808L366.178,156.653z M124.979,291.274v72.435
				l-30.966-30.966L124.979,291.274z M92.486,472.858l-68.344-68.344l55.846-55.845l68.344,68.343L92.486,472.858z M181.635,390.149
				l-17.355,12.862l-19.302-19.303V264.491l36.657-49.087V390.149z M239.958,346.926l-38.323,28.402V188.621l38.323-51.319V346.926z
				 M294.95,306.173L294.95,306.173l-34.991,25.932V110.519l13.595-18.206l21.396,21.396V306.173z M349.106,266.036l-34.157,25.314
				V133.709l34.157,34.157V266.036z M369.106,251.215v-63.349l36.385,36.385L369.106,251.215z"/>
		</g>
	</g>
</g>
</svg>